<svg width="524" height="544" viewBox="0 0 524 544" fill="none" xmlns="http://www.w3.org/2000/svg">
<path fill-rule="evenodd" clip-rule="evenodd" d="M379.622 -9.41736C376.333 -6.1343 377.815 6.83578 381.645 8.30585C387.824 10.6744 391.661 3.77868 388.614 -4.22029C385.985 -11.1293 383.039 -12.8333 379.622 -9.41736ZM340.24 28.2697C338.106 34.982 341.927 39.4853 348.66 38.188C354.653 37.0369 356.838 28.166 351.896 25.0372C345.98 21.2915 342.116 22.3629 340.24 28.2697ZM242.575 28.2697C238.272 31.4119 238.043 32.6108 241.061 36.2448C243.014 38.5947 247.498 40.5194 251.024 40.5194C259.377 40.5194 262.355 32.9165 255.859 28.1713C249.723 23.6894 248.834 23.6973 242.575 28.2697ZM427.413 30.197C425.029 34.6418 425.247 36.6701 428.443 39.8628C433.422 44.8392 440.884 42.4121 440.884 35.8168C440.884 30.8722 436.165 24.5693 432.461 24.5693C431.343 24.5693 429.071 27.1 427.413 30.197ZM291.148 34.9794C289.586 40.95 293.666 45.8361 300.22 45.8361C306.633 45.8361 308.61 41.6306 305.196 35.2585C301.551 28.4531 292.902 28.2803 291.148 34.9794ZM383.071 40.9048C380.681 47.1227 384.053 52.8674 390.091 52.8674C397.683 52.8674 400.171 45.0226 394.005 40.5194C387.651 35.8779 384.966 35.9709 383.071 40.9048ZM340.24 62.4242C341.169 68.9105 349.291 71.9384 353.769 67.4644C357.532 63.7055 351.481 56.4695 344.573 56.4695C340.727 56.4695 339.61 58.006 340.24 62.4242ZM278.827 69.2535C276.544 73.5174 276.818 75.6202 280.081 78.882C285.395 84.1907 288.934 84.1774 290.983 78.8448C291.92 76.4071 290.318 72.3531 287.175 69.2162L281.752 63.7959L278.827 69.2535ZM431.498 69.8782C429.385 73.2942 434.936 80.3946 439.721 80.3946C444.46 80.3946 446.573 76.4682 444.598 71.3296C442.776 66.5818 434.13 65.6248 431.498 69.8782ZM193.43 73.7142C188.677 79.4349 192.142 85.7113 200.053 85.7113C208.784 85.7113 211.964 78.2307 205.298 73.3633C199.047 68.7989 197.475 68.8441 193.43 73.7142ZM240.414 71.5343C237.106 74.836 238.615 85.1344 242.631 86.6736C248.467 88.9093 254.606 85.8176 254.606 80.6418C254.606 72.7492 245.225 66.728 240.414 71.5343ZM381.634 83.9089C379.697 88.9997 384.351 99.1944 388.614 99.1944C393.862 99.1944 396.174 91.8734 392.872 85.7113C389.766 79.9134 383.537 78.9139 381.634 83.9089ZM114.48 103.118C112.843 107.38 121.17 115.501 124.848 113.231C125.963 112.545 126.873 109.062 126.873 105.492C126.873 100.742 125.425 99.003 121.468 99.003C118.493 99.003 115.35 100.856 114.48 103.118ZM308.238 105.157C303.903 110.373 314.348 120.137 319.14 115.349C321.437 113.055 321.551 110.894 319.553 107.728C315.726 101.669 311.865 100.792 308.238 105.157ZM410.542 103.618C407.952 106.202 408.727 114.501 411.728 116.354C415.587 118.739 422.24 112.686 420.561 108.318C418.964 104.16 412.862 101.297 410.542 103.618ZM225.847 110.187C221.659 114.371 221.84 116.399 226.853 121.41C233.237 127.785 241.862 126.857 240.821 119.911C239.65 112.103 230.124 105.915 225.847 110.187ZM187.192 116.726C183.176 120.735 185.59 130.6 191.008 132.317C198.467 134.683 202.448 130.191 200.341 121.793C198.707 115.296 191.428 112.492 187.192 116.726ZM141.953 122.043C140.977 123.016 140.178 126.525 140.178 129.837C140.178 137.671 149.793 141.045 155.599 135.247C159.402 131.448 159.335 130.579 154.889 125.669C149.915 120.179 145.154 118.845 141.953 122.043ZM50.3657 127.346C45.267 129.401 46.414 138.357 52.17 141.433C57.6785 144.378 65.6671 142.595 65.6671 138.418C65.6671 137.017 64.427 133.556 62.9129 130.728C60.1879 125.645 56.8322 124.741 50.3657 127.346ZM91.3921 127.36C87.6559 131.089 89.8592 140.41 95.2773 143.788C100.006 146.739 101.539 146.718 104.602 143.655C107.609 140.654 107.667 138.695 104.932 132.809C101.781 126.03 95.3225 123.431 91.3921 127.36ZM291.861 137.355C291.861 141.117 292.362 144.195 292.974 144.195C293.586 144.195 296.077 144.958 298.509 145.891C302.101 147.268 302.767 146.149 302.053 139.931C300.883 129.728 291.861 127.445 291.861 137.355ZM429.326 137.419C426.995 143.491 430.274 149.895 435.231 148.94C437.829 148.44 439.553 145.49 439.553 141.537C439.553 134.056 431.814 130.94 429.326 137.419ZM361.681 149.945C356.968 154.653 357.617 159.544 363.363 162.617C371.572 167.006 374.672 159.914 368.334 151.25C365.662 147.603 364.294 147.335 361.681 149.945ZM394.005 153.348C391.916 158.781 397.499 165.462 404.131 165.462C412.061 165.462 409.738 151.141 401.622 149.99C398.005 149.477 394.979 150.812 394.005 153.348ZM321.134 157.208C321.134 164.058 331.028 169.933 335.331 165.635C339.418 161.551 334.333 153.762 326.85 152.649C322.597 152.019 321.134 153.186 321.134 157.208ZM176.287 159.013C169.541 165.752 172.143 171.977 182.112 172.94C189.119 173.618 190.739 172.82 190.739 168.7C190.739 165.911 188.485 161.591 185.734 159.103C181.058 154.876 180.433 154.871 176.287 159.013ZM217.35 164.04C217.35 167.894 219.564 171.775 222.728 173.466C233.453 179.2 237.58 168.745 227.401 161.626C219.282 155.945 217.35 156.407 217.35 164.04ZM130.473 166.849C128.129 172.956 132.796 180.083 139.138 180.083C146.19 180.083 145.591 171.039 138.214 166.148C132.839 162.583 132.086 162.652 130.473 166.849ZM47.8536 169.835C46.1346 174.314 53.1147 181.412 59.2379 181.412C64.427 181.412 65.7736 173.923 61.3721 169.526C56.0525 164.212 49.9586 164.351 47.8536 169.835ZM88.8667 174.101C86.9453 179.455 92.0281 186.729 97.6936 186.729C100.956 186.729 102.923 184.929 102.923 181.944C102.923 173.027 91.5331 166.674 88.8667 174.101ZM426.74 172.501C424.763 174.476 427.256 186.947 430.298 190.299C432.677 192.92 443.545 187.733 443.545 183.977C443.545 180.835 433.744 170.778 430.683 170.778C429.462 170.778 427.69 171.555 426.74 172.501ZM292.527 175.346C290.699 176.002 289.2 178.831 289.2 181.633C289.2 185.296 291.071 186.729 295.853 186.729C299.73 186.729 302.506 185.2 302.506 183.065C302.506 178.28 296.753 173.828 292.527 175.346ZM245.957 196.509C240.297 198.019 239.914 203.537 245.164 207.889C251.311 212.985 258.598 210.159 258.598 202.679C258.598 196.001 254.797 194.148 245.957 196.509ZM320.045 199.023C317.786 204.898 324.62 211.927 330.429 209.699C333.13 208.665 334.484 205.717 333.96 202.025C332.898 194.56 322.611 192.34 320.045 199.023ZM389.436 196.477C385.74 200.169 387.872 210.579 392.872 213.254C397.09 215.508 398.638 215 401.001 210.587C404.772 203.548 401.936 194.704 395.908 194.704C393.324 194.704 390.41 195.501 389.436 196.477ZM153.997 205.887C146.868 213.009 153.43 225.37 163.335 223.464C169.961 222.188 169.506 210.893 162.646 206.342C158.407 203.532 156.459 203.428 153.997 205.887ZM66.8513 213.775C65.5686 217.813 66.4681 220.615 69.8424 223.079C82.009 231.966 89.8513 222.781 78.3074 213.163C70.5636 206.709 69.0707 206.788 66.8513 213.775ZM283.128 213.977C281.435 218.695 286.031 226.604 290.467 226.604C295.643 226.604 297.844 222.239 295.845 215.946C293.99 210.111 285.014 208.721 283.128 213.977ZM424.031 212.427C420.885 215.569 422.139 223.198 426.38 226.715C429.776 229.531 431.234 229.408 434.625 226.022C437.887 222.76 438.116 220.739 435.726 216.281C432.748 210.723 427.477 208.984 424.031 212.427ZM0.765321 220.149C-1.76007 226.723 3.92671 234.579 11.2075 234.579C15.7128 234.579 17.7405 233.122 17.682 229.927C17.4824 218.881 4.20081 211.207 0.765321 220.149ZM35.578 222.483C33.1005 224.958 31.0727 227.949 31.0727 229.127C31.0727 232.955 38.6808 237.7 43.3644 236.793C49.9879 235.509 50.568 230.924 44.9796 224.025C40.3786 218.35 39.8091 218.257 35.578 222.483ZM222.673 231.921C222.673 238.681 223.697 239.896 229.408 239.896C233.115 239.896 236.84 238.085 237.689 235.874C239.693 230.658 234.054 223.945 227.67 223.945C223.891 223.945 222.673 225.891 222.673 231.921ZM311.452 241.225C308.903 247.857 312.589 253.187 319.721 253.187C326.999 253.187 328.015 250.431 323.702 242.378C320.426 236.264 313.605 235.621 311.452 241.225ZM97.6004 246.217C97.6004 253.735 103.902 259.719 109.541 257.555C115.246 255.37 114.536 245.917 108.421 242.647C100.458 238.391 97.6004 239.335 97.6004 246.217ZM377.137 243.737C374.393 247.041 374.369 248.671 377.017 251.858C378.84 254.051 381.908 255.846 383.837 255.846C390.096 255.846 391.097 250.122 385.769 244.8C381.11 240.143 380.216 240.034 377.137 243.737ZM406.864 244.803C402.691 247.445 405.145 254.838 410.933 257.055C417.075 259.411 421.5 254.142 418.014 248.62C414.544 243.126 411.279 242.009 406.864 244.803ZM136.253 247.762C133.823 251.688 140.873 261.162 146.224 261.162C152.379 261.162 155.014 254.245 150.793 249.165C147.094 244.713 138.645 243.896 136.253 247.762ZM178.389 251.877C177.45 254.322 178.541 258.089 180.856 260.402C186.508 266.048 194.004 262.813 192.921 255.192C191.873 247.81 180.912 245.311 178.389 251.877ZM457.13 251.521C452.686 256.872 456.448 263.821 463.788 263.821C470.794 263.821 472.575 256.667 466.962 251.061C462.843 246.946 460.852 247.039 457.13 251.521ZM339.817 262.425C335.394 267.747 338.284 274.454 345.001 274.454C351.3 274.454 352.431 266.149 346.768 261.455C344 259.161 342.335 259.395 339.817 262.425ZM40.0113 275.802C39.072 278.248 40.163 282.014 42.4782 284.327C48.1304 289.974 55.6267 286.738 54.5437 279.117C53.4952 271.735 42.5341 269.236 40.0113 275.802ZM286.989 277.54C287.473 280.959 289.666 283.758 291.861 283.758C297.633 283.758 296.838 273.388 290.981 272.261C287.202 271.533 286.305 272.718 286.989 277.54ZM116.228 283.758C116.228 291.696 117.128 293.063 122.349 293.063C139.508 293.063 135.455 274.805 118.224 274.491C117.125 274.47 116.228 278.641 116.228 283.758ZM404.65 280.946C402.002 287.836 404.895 294.376 410.973 295.242C415.709 295.915 416.934 294.796 416.934 289.793C416.934 279.582 407.721 272.95 404.65 280.946ZM439.83 283.998C437.499 290.064 440.197 293.063 447.978 293.063C453.069 293.063 454.357 292.015 453.143 288.857C452.254 286.544 451.528 283.554 451.528 282.211C451.528 278.022 441.538 279.548 439.83 283.998ZM242.25 286.451C241.399 288.663 242.184 292.252 243.991 294.426C249.132 300.618 257.089 299.193 259.995 291.561C263.555 282.203 263.723 282.429 253.193 282.429C247.259 282.429 243.224 283.913 242.25 286.451ZM365.005 290.521C362.817 297.406 367 302.385 373.033 300.073C378.635 297.925 377.264 286.77 371.256 285.627C368.6 285.122 366.098 287.079 365.005 290.521ZM317.56 291.603C315.165 297.837 318.411 303.696 324.255 303.696C328.372 303.696 329.293 302.159 328.627 296.409C327.696 288.341 320.082 285.037 317.56 291.603ZM78.9727 296.872C78.9727 305.304 88.4329 308.704 94.5721 302.478C98.6116 298.377 98.5531 297.776 93.7658 294.23C85.6041 288.187 78.9727 289.37 78.9727 296.872ZM11.4816 305.025C7.78 314.662 19.0711 323.416 24.9122 315.435C27.2141 312.29 27.4083 309.449 25.5536 305.987C22.3709 300.046 13.6238 299.448 11.4816 305.025ZM204.5 306.822C205.671 315.074 218.681 315.866 218.681 307.684C218.681 303.824 216.619 302.13 211.153 301.505C204.606 300.756 203.736 301.45 204.5 306.822ZM471.931 302.811C470.954 303.784 470.156 306.774 470.156 309.457C470.156 315.698 482.902 316.219 485.263 310.073C487.623 303.93 476.742 298.002 471.931 302.811ZM279.426 310.581C277.473 315.664 283.29 322.363 288.064 320.534C290.153 319.731 291.861 316.953 291.861 314.356C291.861 308.417 281.47 305.264 279.426 310.581ZM425.396 317.652C426.434 324.941 436.738 327.345 439.223 320.877C441.597 314.696 438.97 311.671 431.226 311.671C425.822 311.671 424.709 312.811 425.396 317.652ZM121.652 318.195C119.195 321.151 119.704 323.118 124.033 327.443C130.633 334.036 133.738 334.368 135.91 328.711C139.055 320.523 127.064 311.682 121.652 318.195ZM509.186 321.419C508.21 322.392 507.411 325.383 507.411 328.065C507.411 331.707 509.428 332.938 515.395 332.938C523.764 332.938 525.863 328.509 520.185 322.836C516.651 319.306 511.911 318.694 509.186 321.419ZM173.886 326.736C170.597 330.022 172.08 337.672 176.321 339.299C187.942 343.755 192.253 337.537 183.211 329.362C177.833 324.5 176.5 324.125 173.886 326.736ZM207.656 344.935C206.19 348.752 210.783 356.908 214.349 356.823C219.586 356.695 223.069 351.661 221.448 346.562C219.37 340.028 209.966 338.916 207.656 344.935ZM470.156 347.641C470.156 355.443 476.455 358.91 482.109 354.223C487.251 349.959 482.682 340.913 475.385 340.913C471.563 340.913 470.156 342.726 470.156 347.641ZM282.697 345.99C280.852 348.968 283.838 357.538 287.588 360.034C290.472 361.956 297.184 357.785 297.184 354.069C297.184 351.206 289.419 343.571 286.507 343.571C285.233 343.571 283.519 344.658 282.697 345.99ZM433.85 347.593C432.999 349.805 433.784 353.394 435.591 355.568C440.229 361.151 448.867 360.611 448.867 354.736C448.867 345.169 436.958 339.501 433.85 347.593ZM70.9893 355.249C70.9893 364.096 74.3743 367.496 83.1825 367.496C88.7283 367.496 87.7756 357.682 81.6338 351.546C73.9911 343.911 70.9893 344.956 70.9893 355.249ZM147.07 353.213C144.989 358.631 149.926 364.838 156.312 364.838C162.92 364.838 164.948 360.702 161.496 354.26C158.04 347.809 149.386 347.181 147.07 353.213ZM106.462 355.754C104.128 361.829 115.095 372.35 119.339 368.11C121.79 365.662 121.694 363.429 118.919 358.245C114.858 350.669 108.876 349.473 106.462 355.754ZM369.438 353.955C364.739 356.855 366.559 365.875 372.057 366.933C374.417 367.385 377.142 365.691 378.111 363.169C380.343 357.355 374.308 350.945 369.438 353.955ZM334.971 357.395C327.797 364.562 332.222 370.87 341.874 367.228C347.013 365.287 347.524 364.075 345.108 359.564C341.805 353.402 339.469 352.902 334.971 357.395ZM31.102 360.816C26.7431 366.061 29.5878 372.813 36.1554 372.813C42.7416 372.813 45.2112 368.99 43.0397 362.156C41.0492 355.893 35.6924 355.292 31.102 360.816ZM510.738 365.237C505.974 369.995 506.629 374.868 512.454 377.981C520.435 382.248 524.794 375.15 518.761 367.706C515.003 363.07 513.399 362.578 510.738 365.237ZM402.053 371.16C399.9 376.766 402.923 380.788 409.293 380.788C413.312 380.788 414.432 379.307 413.793 374.833C412.801 367.884 404.331 365.234 402.053 371.16ZM239.813 374.142C234.701 378.09 234.701 378.17 239.813 382.117C246.442 387.232 250.42 387.157 254.845 381.83C257.863 378.196 257.634 376.997 253.331 373.855C246.998 369.227 246.157 369.246 239.813 374.142ZM310.489 390.092C310.489 395.704 311.732 396.738 318.472 396.738C326.842 396.738 328.941 392.309 323.262 386.636C317.533 380.913 310.489 382.816 310.489 390.092ZM479.914 387.878C476.542 391.243 478.155 398.833 482.604 400.54C485.1 401.497 488.81 400.508 491.024 398.299C494.273 395.053 494.369 393.612 491.556 390.225C487.961 385.9 482.91 384.882 479.914 387.878ZM89.6171 395.252C89.6171 403.23 93.2362 405.718 101.744 403.583C109.533 401.63 110.241 395.335 103.098 391.515C94.4044 386.868 89.6171 388.197 89.6171 395.252ZM160.278 396.004C158.641 400.26 164.602 407.372 169.802 407.372C173.37 407.372 175.156 402.132 173.434 396.714C171.369 390.215 162.681 389.744 160.278 396.004ZM413.139 406.486C410.864 412.412 414.9 415.998 422.615 414.908C426.766 414.32 429.199 411.981 429.76 408.036C430.476 402.988 429.38 402.055 422.727 402.055C417.822 402.055 414.198 403.73 413.139 406.486ZM381.301 408.897C380.25 411.636 381.408 414.743 384.29 416.923C390.692 421.772 394.314 420.161 394.314 412.468C394.314 404.668 384.01 401.842 381.301 408.897ZM512.576 408.889C508.518 413.776 512.137 421.992 518.346 421.992C523.404 421.992 524.514 411.622 519.868 407.77C516.925 405.333 515.328 405.577 512.576 408.889ZM232.431 411.803C231.454 412.776 230.656 416.365 230.656 419.778C230.656 424.898 232.05 425.98 238.639 425.98C245.736 425.98 246.623 425.095 246.623 418.005C246.623 411.423 245.539 410.03 240.414 410.03C236.997 410.03 233.405 410.827 232.431 411.803ZM457.05 416.434C453.226 421.038 455.363 430.156 460.749 432.222C465.831 434.17 470.746 427.551 469.695 420.172C468.66 412.914 461.688 410.854 457.05 416.434ZM275.924 424.616C271.565 429.861 274.41 436.613 280.977 436.613C287.968 436.613 290.086 432.602 286.568 426.036C283.144 419.642 280.363 419.273 275.924 424.616ZM79.0685 427.195C74.7947 432.339 79.6113 439.272 87.4589 439.272C91.5278 439.272 92.4512 437.719 91.7886 431.985C90.8252 423.635 84.1219 421.113 79.0685 427.195ZM197.027 427.301C196.107 429.696 196.583 432.881 198.087 434.383C202.424 438.716 210.698 435.795 210.698 429.93C210.698 423.17 199.446 421.004 197.027 427.301ZM310.489 429.747C310.489 437.097 315.013 439.647 321.833 436.143C325.543 434.234 325.942 432.644 323.736 428.527C319.627 420.86 310.489 421.7 310.489 429.747ZM118.003 427.753C111.593 434.157 124.047 444.923 131.101 439.075C134.491 436.265 134.417 435.218 130.518 430.917C125.923 425.842 121.127 424.63 118.003 427.753ZM159.2 436.97C156.243 441.701 156.246 443.017 159.226 444.905C168.548 450.806 176.396 445.152 171.659 435.949C168.431 429.683 163.503 430.087 159.2 436.97ZM490.354 440.939C488.483 445.806 493.007 452.564 498.137 452.564C502.994 452.564 505.381 444.562 501.81 440.263C497.72 435.343 492.381 435.656 490.354 440.939ZM387.55 451.37C384.95 454.499 384.739 456.873 386.775 460.097C391.315 467.285 396.975 465.44 396.975 456.772C396.975 447.725 392.64 445.24 387.55 451.37ZM246.846 453.404C241.976 458.268 243.623 463.011 250.808 464.813C258.704 466.791 263.483 463.303 261.163 457.258C259.119 451.939 250.606 449.647 246.846 453.404ZM468.378 459.417C467.492 461.721 468.53 465.371 470.685 467.525C474.07 470.903 475.034 470.922 477.748 467.655C481.548 463.08 479.039 455.222 473.78 455.222C471.694 455.222 469.264 457.109 468.378 459.417ZM93.8631 479.229C91.4734 485.447 94.845 491.192 100.883 491.192C108.475 491.192 110.963 483.347 104.798 478.844C98.4428 474.202 95.7578 474.295 93.8631 479.229ZM319.803 471.172C317.216 475.353 320.878 479.147 327.499 479.147C335.36 479.147 337.795 476.539 334.091 472.081C330.612 467.894 322.163 467.357 319.803 471.172ZM174.773 479.229C174.773 487.826 181.034 492.564 185.933 487.669C190.425 483.182 186.138 471.172 180.044 471.172C175.949 471.172 174.773 472.969 174.773 479.229ZM447.315 477.754C445.269 485.896 446.961 488.422 452.93 486.133C455.498 485.149 456.882 482.164 456.371 478.703C455.128 470.268 449.349 469.662 447.315 477.754ZM413.386 475.603C410.246 478.737 411.492 486.372 415.715 489.873C421.452 494.629 426.072 489.416 423.874 480.67C422.24 474.173 417.237 471.754 413.386 475.603ZM357.394 481.26C356.572 482.592 357.484 485.846 359.419 488.491C363.733 494.384 372.488 491.891 371.2 485.136C370.247 480.149 359.882 477.238 357.394 481.26ZM244.627 494.151C239.97 496.096 240.481 504.398 245.516 508.575C251.221 513.304 258.598 508.54 258.598 500.124C258.598 493.744 252.174 490.998 244.627 494.151ZM391.895 502.681C391.123 503.928 392.177 507.216 394.237 509.992C397.72 514.686 398.29 514.729 402.449 510.638C404.908 508.219 406.108 504.93 405.116 503.327C402.984 499.879 393.902 499.435 391.895 502.681ZM317.07 508.506C314.907 512.004 320.556 519.022 325.535 519.022C327.597 519.022 330.019 517.108 330.919 514.766C333.524 507.982 320.918 502.285 317.07 508.506ZM161.496 515C157.074 520.322 160.019 526.997 166.789 526.997C169.81 526.997 172.974 525.187 173.823 522.975C175.353 518.995 170.666 511.047 166.789 511.047C165.685 511.047 163.301 512.825 161.496 515ZM283.849 516.42C280.397 522.861 282.425 526.997 289.033 526.997C296.508 526.997 301.292 519.979 297.184 515.035C292.588 509.503 287.258 510.055 283.849 516.42ZM358.285 515.159C353.998 520.319 357.013 526.997 363.629 526.997C367.557 526.997 369.034 525.258 369.034 520.636C369.034 513.046 362.716 509.827 358.285 515.159ZM225.789 535.453C226.483 540.337 228.322 541.618 234.648 541.618C240.856 541.618 242.631 540.438 242.631 536.301C242.631 532.221 240.574 530.788 233.772 530.137C225.839 529.376 225.006 529.932 225.789 535.453ZM313.816 539.39C311.987 540.129 310.489 543.024 310.489 545.826C310.489 549.457 312.357 550.922 316.985 550.922C324.968 550.922 327.997 546.674 323.699 541.501C320.322 537.439 319.234 537.208 313.816 539.39Z" fill="white"/>
</svg>
